# AST/ASF file generated using VICON BodyLanguage
# -----------------------------------------------
:version 1.10
:name VICON
:units
  mass 1.0
  length 0.45
  angle deg
:documentation
   .ast/.asf automatically generated from VICON data using
   VICON BodyBuilder and BodyLanguage model FoxedUp or BRILLIANT.MOD
:root
   order TX TY TZ RX RY RZ
   axis XYZ
   position 0 0 0  
   orientation 0 0 0 
:bonedata
  begin
     id 1 
     name lhipjoint
     direction 0.650112 -0.723553 0.232005 
     length 2.45805 
     axis 0 0 0  XYZ
  end
  begin
     id 2 
     name lfemur
     direction 0.34202 -0.939693 0  
     length 7.00073  
     axis 0 0 20  XYZ
    dof rx ry rz
    limits (-160.0 20.0)
           (-70.0 70.0)
           (-60.0 70.0)
  end
  begin
     id 3 
     name ltibia
     direction 0.34202 -0.939693 0   
     length 7.8748   
     axis 0 0 20   XYZ
    dof rx
    limits (-10.0 170.0)
  end
  begin
     id 4 
     name lfoot
     direction 0.0542825 -0.14914 0.987325   
     length 1.75978   
     axis -90 7.62852e-016 20   XYZ
    dof rx rz
    limits (-45.0 90.0)
           (-70.0 20.0)
  end
  begin
     id 5 
     name ltoes
     direction 1.53509e-011 -4.21906e-011 1   
     length 0.893912   
     axis -90 7.62852e-016 20   XYZ
    dof rx
    limits (-90.0 20.0)
  end
  begin
     id 6 
     name rhipjoint
     direction -0.637897 -0.733345 0.235145   
     length 2.42522  
     axis 0 0 0  XYZ 
  end
  begin
     id 7 
     name rfemur
     direction -0.34202 -0.939693 0   
     length 7.02549   
     axis 0 0 -20   XYZ
    dof rx ry rz
    limits (-160.0 20.0)
           (-70.0 70.0)
           (-70.0 60.0)
  end
  begin
     id 8 
     name rtibia
     direction -0.34202 -0.939693 0   
     length 7.71512   
     axis 0 0 -20   XYZ
    dof rx
    limits (-10.0 170.0)
 end
 begin
     id 9 
     name rfoot
     direction -0.0822618 -0.226012 0.970645   
     length 1.90014  
     axis -90 -7.62852e-016 -20   XYZ
    dof rx rz
    limits (-45.0 90.0)
           (-20.0 70.0)
  end
  begin
     id 10 
     name rtoes
     direction -1.53542e-011 -4.21872e-011 1   
     length 0.957341   
     axis -90 -7.62852e-016 -20   XYZ
    dof rx
    limits (-90.0 20.0)
  end
  begin
     id 11 
     name lowerback
     direction -0.0022947 0.999774 -0.0211557   
     length 1.89909   
     axis 0 0 0   XYZ
    dof rx ry rz
    limits (-20.0 45.0)
           (-30.0 30.0)
           (-30.0 30.0)
  end
  begin
     id 12 
     name upperback
     direction 0.0107737 0.998635 0.0511027   
     length 1.8853   
     axis 0 0 0   XYZ
    dof rx ry rz
    limits (-20.0 45.0)
           (-30.0 30.0)
           (-30.0 30.0)
  end
  begin
     id 13 
     name thorax
     direction 0.011824 0.998136 0.0598754   
     length 1.88911   
     axis 0 0 0   XYZ
    dof rx ry rz
    limits (-20.0 45.0)
           (-30.0 30.0)
           (-30.0 30.0)
  end
  begin
     id 14 
     name lowerneck
     direction -0.0685355 0.990319 0.120714   
     length 1.91222   
     axis 0 0 0   XYZ
    dof rx ry rz
    limits (-20.0 45.0)
           (-30.0 30.0)
           (-30.0 30.0)
  end
  begin
     id 15 
     name upperneck
     direction 0.0886204 0.955665 -0.280805   
     length 1.92526   
     axis 0 0 0   XYZ
    dof rx ry rz
    limits (-20.0 45.0)
           (-30.0 30.0)
           (-30.0 30.0)
  end
  begin
     id 16
     name head
     direction 0.0233423 0.993502 -0.111393  
     length 1.96056  
     axis 0 0 0   XYZ
    dof rx ry rz
    limits (-20.0 45.0)
           (-30.0 30.0)
           (-30.0 30.0)
  end
  begin
     id 17 
     name lclavicle
     direction 0.941873 0.32922 0.0670041  
     length 3.31705  
     axis 0 0 0   XYZ
    dof ry rz
    limits (-20.0 10.0)
           (0.0 20.0)
  end
  begin
     id 18 
     name lhumerus
     direction 1 -4.4898e-011 3.38707e-028   
     length 5.29277   
     axis 180 -30 -90   XYZ
    dof rx ry rz
    limits (-60.0 90.0)
           (-90.0 90.0)
           (-90.0 90.0)
  end
  begin
     id 19
     name lradius
     direction 1 -4.48952e-011 1.63213e-028   
     length 2.85226   
     axis 180 -30 -90   XYZ
    dof rx
    limits (-10.0 170.0)
  end
  begin
     id 20
     name lwrist
     direction 1 -4.49001e-011 1.27856e-027   
     length 1.42613   
     axis -1.61767e-015 90 90   XYZ
    dof ry
    limits (-180.0 0.0)
 end
  begin
     id 21 
     name lhand
     direction 1 -4.48976e-011 2.55931e-027   
     length 0.602097   
     axis -1.63363e-015 90 90   XYZ
    dof rx rz
    limits (-90.0 90.0)
           (-45.0 45.0)
  end
  begin
     id 22 
     name lfingers
     direction 1 -4.48986e-011 5.11684e-027   
     length 0.485426   
     axis -3.26723e-015 90 90   XYZ
    dof rx
    limits (0.0 90.0)
  end
  begin
     id 23
     name lthumb
     direction 0.707107 -6.34915e-011 0.707107   
     length 0.696978   
     axis -90 45 -2.25915e-014   XYZ
    dof rx rz
    limits (-45.0 45.0)
           (-45.0 45.0)
  end
  begin
     id 24 
     name rclavicle
     direction -0.939974 0.327078 0.0973096   
     length 3.10337  
     axis 0 0 0   XYZ 
    dof ry rz
    limits (-10.0 20.0)
           (-20.0 0.0)
  end
  begin
     id 25 
     name rhumerus
     direction -1 -4.48975e-011 1.83745e-027  
     length 5.13304   
     axis 180 30 90   XYZ
    dof rx ry rz
    limits (-90.0 60.0)
           (-90.0 90.0)
           (-90.0 90.0)
  end
  begin
     id 26 
     name rradius
     direction -1 -4.48977e-011 7.1775e-029   
     length 2.74305   
     axis 180 30 90   XYZ
    dof rx
    limits (-10.0 170.0)
  end
  begin
     id 27 
     name rwrist
     direction -1 -4.48977e-011 1.27963e-027   
     length 1.37152   
     axis -1.61767e-015 -90 -90   XYZ
    dof ry
    limits (-180.0 0.0)
  end
  begin
     id 28
     name rhand
     direction -1 -4.4888e-011 2.56782e-027   
     length 0.767976   
     axis -1.63363e-015 -90 -90   XYZ
    dof rx rz
    limits (-90.0 90.0)
           (-45.0 45.0)
  end
  begin
     id 29
     name rfingers
     direction -1 -4.48947e-011 5.12384e-027   
     length 0.619162   
     axis -3.26723e-015 -90 -90   XYZ
    dof rx
    limits (0.0 90.0)
  end
  begin
     id 30
     name rthumb
     direction -0.707107 -6.34857e-011 0.707107   
     length 0.888997   
     axis -90 -45 2.25915e-014   XYZ
    dof rx rz
    limits (-45.0 45.0)
           (-45.0 45.0)
  end
:hierarchy
  begin
    root lhipjoint rhipjoint lowerback
    lhipjoint lfemur
    lfemur ltibia
    ltibia lfoot
    lfoot ltoes
    rhipjoint rfemur
    rfemur rtibia
    rtibia rfoot
    rfoot rtoes
    lowerback upperback
    upperback thorax
    thorax lowerneck lclavicle rclavicle
    lowerneck upperneck
    upperneck head
    lclavicle lhumerus
    lhumerus lradius
    lradius lwrist
    lwrist lhand lthumb
    lhand lfingers
    rclavicle rhumerus
    rhumerus rradius
    rradius rwrist
    rwrist rhand rthumb
    rhand rfingers
  end

#!OML:ASF F:\VICON\USERDATA\INSTALL\rory3\rory3.ASF
:FULLY-SPECIFIED
:DEGREES
512
root 0.002144 17.2058 -0.123396 -4.84149 4.06604 0.636279
lowerback -3.45527 -0.548585 -3.33896
upperback 3.0937 -0.545115 0.137803
thorax 5.1788 -0.396115 1.97234
lowerneck 17.4322 -6.8858 -21.3892
upperneck 10.5731 -14.0092 20.2237
head 3.2196 -7.93132 10.1459
rclavicle -4.62291e-015 -1.98785e-015
rhumerus 40.0436 11.4914 17.2791
rradius 132.323
rwrist -7.92531
rhand 50.8437 8.17889
rfingers 7.12502
rthumb 70.4939 14.0879
lclavicle -4.62291e-015 -1.98785e-015
lhumerus 39.6804 -9.84353 -9.78673
lradius 132.272
lwrist 28.2807
lhand 32.2276 53.7084
lfingers 7.12502
lthumb 55.6977 71.33
rfemur 9.11347 10.5074 20.3294
rtibia 12.7578
rfoot -16.2017 -14.0154
rtoes -16.4147
lfemur 3.46338 -17.0522 -21.4535
ltibia 19.2483
lfoot -16.0512 9.22721
ltoes -23.3256
513
root 0.00273714 17.2055 -0.123737 -4.85363 4.07537 0.56343
lowerback -3.44237 -0.517947 -3.20001
upperback 3.05866 -0.511815 0.10626
thorax 5.13035 -0.372655 1.86453
lowerneck 17.6124 -6.88908 -21.2952
upperneck 10.4788 -14.0201 20.2595
head 3.16111 -7.94282 10.1542
rclavicle -3.38672e-015 -1.98785e-015
rhumerus 39.9729 11.5764 16.8781
rradius 132.643
rwrist -9.52093
rhand 52.0772 5.42788
rfingers 7.12502
rthumb 71.2482 14.1517
lclavicle -3.38672e-015 -1.98785e-015
lhumerus 39.8172 -9.8377 -9.45
lradius 132.135
lwrist 28.6717
lhand 32.1615 53.7614
lfingers 7.12502
lthumb 55.639 71.4275
rfemur 9.14891 10.4905 20.4109
rtibia 12.7193
rfoot -16.1609 -14.0166
rtoes -16.4679
lfemur 3.4233 -16.9058 -21.3412
ltibia 19.3086
lfoot -15.9698 9.15488
ltoes -24.1096
514
root 0.00352983 17.2055 -0.124931 -4.8402 4.11259 0.56909
lowerback -3.42556 -0.511533 -3.18738
upperback 3.00186 -0.504897 0.0921355
thorax 5.06051 -0.366731 1.84369
lowerneck 17.7855 -6.88772 -21.1889
upperneck 10.3794 -14.0139 20.2249
head 3.09377 -7.94419 10.1353
rclavicle -1.60814e-015 8.54774e-015
rhumerus 39.8334 11.6042 16.5444
rradius 133.002
rwrist -10.8576
rhand 52.8805 3.56214
rfingers 7.12502
rthumb 71.7124 14.2434
lclavicle -1.60814e-015 8.54774e-015
lhumerus 39.8 -9.91685 -8.98747
lradius 131.983
lwrist 28.9471
lhand 32.1857 53.8023
lfingers 7.12502
lthumb 55.6605 71.4521
rfemur 9.17926 10.4537 20.3988
rtibia 12.6522
rfoot -16.1222 -14.0297
rtoes -16.6252
lfemur 3.38917 -16.9329 -21.3447
ltibia 19.3362
lfoot -15.9865 9.15536
ltoes -24.1341
515
root 0.00419634 17.2067 -0.125486 -4.82504 4.16408 0.554112
lowerback -3.42797 -0.499349 -3.15754
upperback 2.97097 -0.490813 0.093506
thorax 5.02833 -0.35784 1.8296
lowerneck 17.8742 -6.92915 -21.0882
upperneck 10.3085 -14.0554 20.1881
head 3.05898 -7.96485 10.1084
rclavicle -1.65818e-014 -4.67144e-015
rhumerus 39.6608 11.6435 16.1636
rradius 133.298
rwrist -11.8516
rhand 53.56 2.2454
rfingers 7.12502
rthumb 72.0871 14.6614
lclavicle -1.65818e-014 -4.67144e-015
lhumerus 39.8346 -9.90702 -8.37982
lradius 131.742
lwrist 29.0141
lhand 32.6934 53.5375
lfingers 7.12502
lthumb 56.1107 70.841
rfemur 9.21013 10.3998 20.4134
rtibia 12.5711
rfoot -16.0976 -14.0431
rtoes -17.2066
lfemur 3.35601 -16.9677 -21.3224
ltibia 19.3371
lfoot -15.9516 9.15792
ltoes -24.1953
516
root 0.0051258 17.2088 -0.12423 -4.77056 4.18586 0.549943
lowerback -3.47406 -0.490075 -3.15828
upperback 2.91917 -0.478269 0.108324
thorax 4.99984 -0.350882 1.84631
lowerneck 17.9151 -6.96418 -21.0451
upperneck 10.2971 -14.1017 20.1911
head 3.05664 -7.98834 10.1023
rclavicle 7.83336e-015 1.08338e-014
rhumerus 39.4964 11.8382 15.769
rradius 133.144
rwrist -11.9623
rhand 53.447 2.89224
rfingers 7.12502
rthumb 72.0259 15.0145
lclavicle 7.83336e-015 1.08338e-014
lhumerus 39.8096 -9.90806 -7.58707
lradius 131.433
lwrist 28.8344
lhand 33.582 52.9493
lfingers 7.12502
lthumb 56.8952 69.6223
rfemur 9.20388 10.3771 20.41
rtibia 12.4773
rfoot -16.024 -14.0267
rtoes -17.5344
lfemur 3.31175 -16.9615 -21.299
ltibia 19.2955
lfoot -15.9286 9.1096
ltoes -24.1761
517
root 0.00522063 17.2116 -0.122155 -4.71836 4.21292 0.593465
lowerback -3.4872 -0.499455 -3.2413
upperback 2.85473 -0.487619 0.129026
thorax 4.94174 -0.357167 1.91382
lowerneck 17.96 -6.98558 -20.9983
upperneck 10.255 -14.1255 20.1898
head 3.03901 -8.00058 10.0956
rclavicle 1.25289e-014 -1.60022e-014
rhumerus 39.3576 12.0176 15.256
rradius 132.892
rwrist -11.9703
rhand 53.1634 4.03869
rfingers 7.12502
rthumb 71.8705 15.4333
lclavicle 1.25289e-014 -1.60022e-014
lhumerus 39.7402 -10.1221 -6.83468
lradius 131.146
lwrist 28.6795
lhand 33.6562 52.8576
lfingers 7.12502
lthumb 56.9606 69.4764
rfemur 9.23279 10.3539 20.3521
rtibia 12.3643
rfoot -16.0233 -13.9497
rtoes -16.7242
lfemur 3.2927 -16.955 -21.3311
ltibia 19.2302
lfoot -15.9315 9.0543
ltoes -24.0055
518
root 0.00393009 17.2138 -0.12027 -4.64809 4.21418 0.638299
lowerback -3.54876 -0.50661 -3.3399
upperback 2.81791 -0.491218 0.159033
thorax 4.94018 -0.362472 1.99979
lowerneck 17.9897 -6.97253 -20.9929
upperneck 10.1567 -14.1058 20.2626
head 3.0044 -7.9925 10.1242
rclavicle -8.97792e-015 3.97569e-016
rhumerus 39.1885 12.0691 14.5721
rradius 132.832
rwrist -12.3048
rhand 53.2435 4.03393
rfingers 7.12502
rthumb 71.9147 15.6327
lclavicle -8.97792e-015 3.97569e-016
lhumerus 39.6106 -10.4121 -6.01754
lradius 130.968
lwrist 28.5488
lhand 33.1143 53.271
lfingers 7.12502
lthumb 56.483 70.2797
rfemur 9.22537 10.3555 20.2999
rtibia 12.2599
rfoot -16.0053 -13.9091
rtoes -16.1954
lfemur 3.25891 -16.9561 -21.3595
ltibia 19.1486
lfoot -15.9054 9.11408
ltoes -24.2478
519
root 0.00436215 17.2165 -0.119415 -4.57317 4.22795 0.666576
lowerback -3.58694 -0.42432 -3.32677
upperback 2.74807 -0.3818 0.160483
thorax 4.88208 -0.305913 2.00259
lowerneck 18.1714 -7.046 -20.9117
upperneck 9.91301 -14.198 20.3511
head 2.92408 -8.0447 10.149
rclavicle 8.19676e-015 -1.59028e-015
rhumerus 38.7464 12.0825 13.7613
rradius 132.842
rwrist -12.7485
rhand 53.5697 3.62025
rfingers 7.12502
rthumb 72.0923 16.0615
lclavicle 8.19676e-015 -1.59028e-015
lhumerus 39.6474 -10.6561 -4.99006
lradius 130.878
lwrist 28.3515
lhand 32.6798 53.4453
lfingers 7.12502
lthumb 56.0987 70.7583
rfemur 9.2119 10.3439 20.2568
rtibia 12.1307
rfoot -15.9304 -13.901
rtoes -16.4167
lfemur 3.19624 -16.9426 -21.3669
ltibia 19.0963
lfoot -15.8394 9.12133
ltoes -24.312
520
root 0.00776447 17.218 -0.119206 -4.49908 4.25363 0.664048
lowerback -3.5782 -0.305066 -3.20673
upperback 2.61595 -0.231378 0.14871
thorax 4.72875 -0.222896 1.93502
lowerneck 18.3564 -7.14923 -20.8369
upperneck 9.77142 -14.3447 20.4334
head 2.88603 -8.125 10.1701
rclavicle 2.58575e-016 1.93815e-015
rhumerus 38.1618 12.2685 12.8609
rradius 132.858
rwrist -12.9054
rhand 53.8197 3.64592
rfingers 7.12502
rthumb 72.2256 16.744
lclavicle 2.58575e-016 1.93815e-015
lhumerus 39.769 -10.9467 -3.77419
lradius 130.72
lwrist 28.0254
lhand 32.6908 53.1634
lfingers 7.12502
lthumb 56.1084 70.4687
rfemur 9.21432 10.3205 20.2233
rtibia 11.9696
rfoot -15.8279 -13.9045
rtoes -16.8312
lfemur 3.11957 -16.9866 -21.3575
ltibia 19.0813
lfoot -15.8298 9.08268
ltoes -24.082
521
root 0.0125372 17.2203 -0.121243 -4.39686 4.25192 0.61146
lowerback -3.59322 -0.218546 -3.023
upperback 2.48243 -0.1275 0.140096
thorax 4.59063 -0.161509 1.83101
lowerneck 18.3794 -7.24986 -20.6813
upperneck 9.78389 -14.4576 20.4256
head 2.89905 -8.17646 10.1368
rclavicle 1.70271e-014 2.73826e-014
rhumerus 37.689 12.902 11.8068
rradius 132.701
rwrist -12.3164
rhand 53.4149 4.19793
rfingers 7.12502
rthumb 72.0085 16.2371
lclavicle 1.70271e-014 2.73826e-014
lhumerus 39.7219 -11.3734 -2.4028
lradius 130.559
lwrist 27.4412
lhand 32.712 52.9303
lfingers 7.12502
lthumb 56.1272 70.221
rfemur 9.17612 10.3218 20.2284
rtibia 11.7792
rfoot -15.7019 -13.8639
rtoes -17.5399
lfemur 2.97933 -17.0153 -21.2835
ltibia 19.1002
lfoot -15.8231 9.07091
ltoes -23.7101
522
root 0.0170955 17.2237 -0.123712 -4.28462 4.20146 0.550899
lowerback -3.57687 -0.188169 -2.97463
upperback 2.36359 -0.0967947 0.252956
thorax 4.45583 -0.143268 1.92307
lowerneck 18.2755 -7.30119 -20.6592
upperneck 9.75384 -14.4998 20.386
head 2.91153 -8.18991 10.109
rclavicle -5.7733e-015 1.20762e-014
rhumerus 37.4833 13.6814 10.6623
rradius 132.36
rwrist -11.4533
rhand 52.5344 4.97438
rfingers 7.12502
rthumb 71.5152 14.8
lclavicle -5.7733e-015 1.20762e-014
lhumerus 39.3426 -11.9197 -0.742958
lradius 130.375
lwrist 26.7031
lhand 32.5654 52.893
lfingers 7.12502
lthumb 55.9974 70.2848
rfemur 9.14169 10.3707 20.247
rtibia 11.5475
rfoot -15.569 -13.765
rtoes -17.9097
lfemur 2.80849 -16.9953 -21.1899
ltibia 19.1674
lfoot -15.8668 9.03827
ltoes -23.0514
523
root 0.0224143 17.2278 -0.124259 -4.19465 4.12604 0.500519
lowerback -3.5618 -0.212861 -2.96101
upperback 2.34849 -0.138067 0.417755
thorax 4.43441 -0.1656 2.08304
lowerneck 17.719 -7.37847 -20.7725
upperneck 9.86912 -14.5468 20.3546
head 3.04827 -8.18659 10.0753
rclavicle 4.52876e-015 -2.02139e-014
rhumerus 37.3129 13.9665 9.30724
rradius 132.052
rwrist -10.4608
rhand 51.6297 6.48375
rfingers 7.12502
rthumb 70.9801 14.1601
lclavicle 4.52876e-015 -2.02139e-014
lhumerus 38.643 -12.3754 1.1315
lradius 130.24
lwrist 25.8151
lhand 32.4391 52.9497
lfingers 7.12502
lthumb 55.8854 70.4279
rfemur 9.13989 10.4448 20.2634
rtibia 11.3277
rfoot -15.4415 -13.6883
rtoes -17.8744
lfemur 2.67196 -16.9513 -21.1258
ltibia 19.2479
lfoot -15.8602 9.15713
ltoes -23.8028
524
root 0.0293152 17.2297 -0.125339 -4.14249 4.04689 0.425413
lowerback -3.54549 -0.269008 -2.89353
upperback 2.39853 -0.223963 0.593179
thorax 4.48282 -0.210501 2.22055
lowerneck 17.1137 -7.44058 -20.8978
upperneck 9.84368 -14.5519 20.3778
head 3.14631 -8.16046 10.0626
rclavicle 1.27579e-015 1.96797e-014
rhumerus 37.0047 13.948 7.85595
rradius 131.883
rwrist -9.60514
rhand 50.8917 8.00141
rfingers 7.12502
rthumb 70.5242 14.0159
lclavicle 1.27579e-015 1.96797e-014
lhumerus 37.7761 -12.8444 3.11418
lradius 130.145
lwrist 24.7383
lhand 32.2543 52.7483
lfingers 7.12502
lthumb 55.7214 70.352
rfemur 9.14345 10.5214 20.3081
rtibia 11.1716
rfoot -15.3517 -13.6634
rtoes -17.9319
lfemur 2.57544 -16.849 -21.0377
ltibia 19.319
lfoot -15.8901 9.00943
ltoes -22.7816
